<svg width="32" height="32" viewBox="0 0 32 32" fill="none" xmlns="http://www.w3.org/2000/svg">
<path d="M16 8L17.43 9.393L11.85 15H24V17H11.85L17.43 22.573L16 24L8 16L16 8Z" fill="#0D1158"/>
<path d="M16 30C18.7689 30 21.4757 29.1789 23.778 27.6406C26.0803 26.1022 27.8747 23.9157 28.9343 21.3576C29.9939 18.7994 30.2712 15.9845 29.731 13.2687C29.1908 10.553 27.8574 8.05845 25.8995 6.10051C23.9416 4.14258 21.447 2.80921 18.7313 2.26901C16.0155 1.72882 13.2006 2.00607 10.6424 3.06569C8.08426 4.12532 5.89776 5.91973 4.35942 8.22202C2.82108 10.5243 1.99999 13.2311 1.99999 16C2.00423 19.7117 3.48059 23.2702 6.10518 25.8948C8.72977 28.5194 12.2883 29.9958 16 30ZM16 4.00001C18.3734 4.00001 20.6934 4.70379 22.6668 6.02237C24.6402 7.34095 26.1783 9.21509 27.0865 11.4078C27.9948 13.6005 28.2324 16.0133 27.7694 18.3411C27.3064 20.6689 26.1635 22.8071 24.4853 24.4853C22.807 26.1635 20.6688 27.3064 18.3411 27.7694C16.0133 28.2325 13.6005 27.9948 11.4078 27.0866C9.21508 26.1783 7.34094 24.6402 6.02236 22.6668C4.70378 20.6935 3.99999 18.3734 3.99999 16C4.0037 12.8185 5.26917 9.76845 7.5188 7.51882C9.76844 5.26918 12.8185 4.00371 16 4.00001Z" fill="#0D1158"/>
</svg>
