<svg width="245" height="288" viewBox="0 0 245 288" fill="none" xmlns="http://www.w3.org/2000/svg">
<path d="M9.11697 191.453C6.59759 191.894 4.07822 192.335 1.55884 192.713C4.07822 192.461 6.59759 192.02 9.11697 191.453Z" fill="#0A3763"/>
<path d="M0.0472383 192.965C0.551114 192.902 1.055 192.839 1.55887 192.713C1.055 192.776 0.551114 192.839 0.0472383 192.839C-0.0157461 192.902 -0.0157461 192.965 0.0472383 192.965Z" fill="#0A3763"/>
<path d="M242.663 125.068C234.412 125.635 226.224 126.705 218.036 127.902C215.958 128.217 198.448 131.618 200.464 125.572C201.283 123.178 197.503 122.17 196.748 124.564C194.417 131.303 184.529 132.059 180.309 126.894C179.553 126.013 178.293 126.453 177.726 127.209C170.924 136.468 161.98 143.9 151.966 149.38C156.06 140.121 160.217 130.862 164.437 121.667C185.221 97.4176 196.37 64.9806 208.085 35.8818C212.62 24.5446 217.344 13.2703 222.886 2.37404C223.768 0.610472 221.123 -1.02712 220.178 0.799425C200.905 36.7006 182.513 73.1056 165.381 110.077C163.303 114.549 161.224 119.021 159.209 123.493C154.359 129.036 149.005 134.138 143.337 138.798C142.644 139.365 143.589 140.562 144.282 140.058C148.502 137.161 152.344 133.949 155.997 130.547C146.486 151.647 137.29 172.81 128.472 194.225C126.079 195.044 123.686 195.799 121.229 196.492C104.853 201.153 87.3436 203.357 70.3378 201.279C62.6537 200.334 54.7807 198.256 48.3563 193.784C43.7584 190.635 40.7351 186.352 38.7826 181.439C42.8766 179.297 46.9076 176.967 50.7497 174.385C57.0481 170.102 62.9057 165.252 68.3853 160.024C68.3853 161.221 69.8969 161.662 70.7787 161.221C77.959 157.694 83.7535 151.836 87.4696 144.845C87.7215 147.742 87.9105 150.576 88.0995 153.474C88.1624 154.607 89.4221 155.615 90.5558 154.859C97.1692 150.639 102.649 144.908 106.932 138.357C107.121 140.688 107.247 142.955 107.373 145.286C107.499 146.86 109.136 147.49 110.333 146.482C114.427 143.018 118.521 139.554 122.615 136.09C126.394 141.192 132.944 143.648 139.117 141.444C140.628 140.94 139.999 138.798 138.487 139.113C133.007 140.184 127.213 137.728 124.441 132.752C123.875 131.744 122.615 131.744 121.796 132.437C118.017 135.586 114.238 138.798 110.459 141.948C110.144 139.176 109.829 136.405 109.577 133.571C109.451 132.122 107.562 131.366 106.743 132.815C102.775 139.869 97.4212 145.727 90.9967 150.576C90.5559 146.86 90.115 143.081 89.8 139.365C89.6741 137.728 87.5956 137.476 86.9657 138.987C84.0055 146.671 78.6518 152.718 71.7865 156.938C71.7865 156.812 71.7865 156.686 71.8495 156.623C78.6518 149.758 84.7613 142.2 90.3669 134.263C96.0355 126.139 101.137 117.636 105.861 108.944C108.317 104.409 110.585 99.811 112.852 95.1501C114.805 91.1191 117.324 86.8992 118.332 82.5532C120.159 74.9951 113.482 72.0349 107.058 72.8537C99.3737 73.8614 91.5636 77.0736 84.6983 80.5378C56.1663 95.0242 35.6334 124.69 32.7991 156.623C32.0433 164.811 32.1693 173.692 34.8776 181.628C26.7526 186.037 18.1237 189.627 9.24292 191.579C15.3524 190.446 21.3989 188.997 27.2565 186.73C30.0278 185.659 32.7361 184.462 35.4444 183.202C38.2787 190.446 43.7584 196.051 50.6867 199.641C65.9919 207.514 85.3281 207.011 101.893 204.743C110.27 203.609 118.458 201.72 126.52 199.2C123.497 206.507 120.536 213.876 117.576 221.245C109.073 242.597 100.696 264.011 93.0752 285.678C92.2564 288.072 95.9095 288.953 96.7913 286.686C106.239 262.689 115.561 238.629 125.197 214.632C127.528 208.9 129.795 203.106 132 197.374C158.705 188.115 183.143 172.306 205.251 155.048C209.03 152.088 212.809 149.002 216.462 145.916C217.47 145.097 216.084 143.27 215.076 144.089C190.197 163.173 163.555 181.439 133.952 192.335C135.275 188.997 136.597 185.659 137.857 182.258C139.117 179.297 140.314 176.4 141.573 173.44C144.408 166.763 147.305 160.15 150.202 153.537C161.413 147.931 171.176 139.995 179.238 130.484C184.34 135.334 192.717 134.641 197.566 129.918C200.149 132.752 205.943 133.634 209.282 133.193C220.619 131.87 231.956 130.169 243.104 127.713C244.553 127.461 244.238 124.942 242.663 125.068ZM36.3892 171.424C33.051 141.192 48.2933 110.644 71.7865 92.1269C77.5181 87.592 83.8165 83.8129 90.4929 80.7897C93.894 79.2781 97.4212 78.0184 101.074 76.9476C104.601 75.9399 108.821 74.5542 112.411 75.688C118.395 77.5775 114.553 84.3168 112.852 88.0329C110.837 92.3788 108.758 96.6618 106.617 100.945C102.46 109.133 97.988 117.132 93.0122 124.879C86.9027 134.515 79.9745 143.711 72.2274 152.088C72.3533 150.513 72.5423 149.002 72.6683 147.427C72.7942 146.042 70.7787 145.664 70.1489 146.734C67.4406 151.332 63.4725 154.796 58.6227 156.875C58.4338 154.23 59.0006 151.71 60.1973 149.317C60.7642 148.246 59.1896 147.301 58.5597 148.372C56.6702 151.584 55.9144 154.985 56.2923 158.701C56.3553 159.457 57.0481 160.15 57.8669 159.898C62.3388 158.513 66.2439 155.993 69.2671 152.592C69.1411 153.6 69.0152 154.607 68.8892 155.615C63.9764 160.591 58.7487 165.252 53.2061 169.472C48.4822 173.062 43.4435 176.463 38.1528 179.612C37.271 177.03 36.7041 174.259 36.3892 171.424ZM202.416 42.1802C193.284 65.2955 184.151 88.4738 170.168 109.07C177.285 93.7645 184.529 78.4593 191.961 63.28C195.425 56.2887 198.889 49.2345 202.416 42.1802Z" fill="#0A3763"/>
</svg>
