<svg width="919" height="918" viewBox="0 0 919 918" fill="none" xmlns="http://www.w3.org/2000/svg">
<path d="M918.5 459.2C918.5 587.6 865.8 703.6 780.8 786.9C780.3 787.4 779.7 787.9 779.2 788.5C772.2 795.3 765 801.8 757.6 808.1C743 820.6 727.6 832.2 711.6 842.7C639.3 890.3 552.7 918 459.7 918C366.7 918 280.1 890.3 207.8 842.7C191.7 832.1 176.3 820.5 161.8 808.1C154.4 801.8 147.2 795.2 140.2 788.5C139.7 788 139.1 787.5 138.6 786.9C53.5999 703.6 0.899902 587.6 0.899902 459.2C0.899902 205.8 206.3 0.400024 459.7 0.400024C713.1 0.400024 918.5 205.9 918.5 459.2Z" fill="#648EC7"/>
<path d="M779.2 788.5C772.2 795.3 765 801.8 757.6 808.1C743 820.6 727.6 832.2 711.6 842.7C639.3 890.3 552.7 918 459.7 918C366.7 918 280.1 890.3 207.8 842.7C191.7 832.1 176.3 820.5 161.8 808.1C154.4 801.8 147.2 795.2 140.2 788.5C157.5 734.9 199.8 691.5 255.5 673.9L391.3 631V608.6C374.3 598.5 359.1 586.9 346.5 578.5C323.2 562.8 307.5 538.1 302.8 510.3L295.6 467C272.9 467 254.6 448.7 254.6 426C254.6 409.1 264.7 394.7 279.2 388.4C266.5 358.7 257.2 327.2 251.6 294.8C248 274.3 246 252.7 252.1 233C258.1 213.3 274 195.9 292.8 195.6L295.3 195.8C307.1 177.3 325.6 165.1 345.1 158.1C364.5 151 385 148.7 405.3 146.3C413.2 145.4 421.2 144.5 429.2 143.7C466.1 140.1 506.3 139.3 544 149.8C581.7 160.3 618.2 183.9 637.4 221.4C652.7 251.2 655.8 287.1 651.9 321.2C649.4 343.8 643.9 365.7 637.6 387.4C653.4 393.1 664.7 408.2 664.7 426C664.7 448.7 646.4 467 623.7 467L616.5 510.3C611.9 538.1 596.2 562.7 572.8 578.5C560.2 587 545 598.5 528 608.6V631L663.8 673.9C719.6 691.5 761.9 734.9 779.2 788.5Z" fill="white"/>
</svg>
