<svg width="189" height="189" viewBox="0 0 189 189" fill="none" xmlns="http://www.w3.org/2000/svg">
<path d="M188.06 94.03C188.06 106.378 185.628 118.605 180.902 130.014C176.177 141.422 169.251 151.788 160.519 160.519C151.788 169.251 141.422 176.177 130.014 180.902C118.605 185.628 106.378 188.06 94.03 188.06C69.0917 188.06 45.1748 178.153 27.5408 160.519C9.9067 142.885 0 118.968 0 94.03C0 69.0917 9.9067 45.1748 27.5408 27.5407C45.1748 9.9067 69.0917 0 94.03 0C106.378 0 118.605 2.43216 130.014 7.15761C141.422 11.8831 151.788 18.8093 160.519 27.5407C169.251 36.2722 176.177 46.638 180.902 58.0463C185.628 69.4545 188.06 81.6818 188.06 94.03Z" fill="#6B96D1"/>
<path d="M181.13 94.0702C181.13 117.171 171.953 139.325 155.619 155.659C139.284 171.994 117.13 181.17 94.0297 181.17C70.9293 181.17 48.7751 171.994 32.4407 155.659C16.1063 139.325 6.92969 117.171 6.92969 94.0702C6.92969 70.9699 16.1063 48.8156 32.4407 32.4812C48.7751 16.1468 70.9293 6.97021 94.0297 6.97021C117.13 6.97021 139.284 16.1468 155.619 32.4812C171.953 48.8156 181.13 70.9699 181.13 94.0702Z" fill="white"/>
<path d="M94.0296 105.69C113.575 105.69 129.42 89.8455 129.42 70.3002C129.42 50.7548 113.575 34.9102 94.0296 34.9102C74.4843 34.9102 58.6396 50.7548 58.6396 70.3002C58.6396 89.8455 74.4843 105.69 94.0296 105.69Z" fill="#6B96D1"/>
<path d="M98.3796 116.1C108.146 115.12 116.976 111.167 124.87 104.24C125.104 104.035 125.395 103.907 125.705 103.873C126.014 103.839 126.326 103.901 126.6 104.05C141.393 112.197 151.976 124.124 158.35 139.83C158.85 141.07 159.28 141.54 158.35 142.74C140.26 166.33 111.5 178.11 82.0096 173.81C60.8796 170.73 42.3596 159.34 29.3696 142.31C29.2467 142.147 29.1667 141.956 29.137 141.753C29.1073 141.551 29.1288 141.343 29.1996 141.15C35.4129 124.784 46.2296 112.39 61.6496 103.97C61.8643 103.851 62.1113 103.802 62.3554 103.831C62.5995 103.859 62.8284 103.964 63.0096 104.13C72.5396 112.85 85.6796 117.37 98.3796 116.1Z" fill="#6B96D1"/>
</svg>
