<svg width="17" height="17" viewBox="0 0 17 17" fill="none" xmlns="http://www.w3.org/2000/svg">
<path d="M0 6.61426C0.0255428 6.5172 0.0510857 6.42013 0.0766285 6.32818C0.342274 5.35755 1.22606 4.68322 2.23244 4.63725C2.65135 4.61681 3.00384 4.69344 3.29503 5.01017C3.40741 5.13278 3.55556 5.22984 3.68328 5.33712C3.96936 5.57211 4.31163 5.57211 4.60282 5.34223C4.8276 5.16343 5.04726 4.97952 5.26182 4.7905C5.38443 4.68322 5.52236 4.62703 5.68583 4.64235C6.01278 4.6679 6.34484 4.66279 6.66668 4.72409C7.13667 4.81094 7.53514 5.05615 7.87741 5.39331C8.1124 5.6232 8.34229 5.8633 8.58239 6.08808C8.62837 6.13405 8.71011 6.16471 8.77652 6.16471C9.18009 6.16981 9.58367 6.1596 9.98725 6.16981C10.1558 6.17492 10.3244 6.21068 10.4828 6.25666C10.5901 6.28731 10.6411 6.26688 10.7076 6.19025C11.3257 5.49548 11.9438 4.79561 12.5671 4.10595C12.6437 4.01911 12.7612 3.9527 12.8685 3.92205C13.032 3.87607 13.1699 3.95781 13.2669 4.09574C13.3589 4.23367 13.3691 4.38693 13.2823 4.52997C13.2465 4.59127 13.1954 4.64746 13.1443 4.70366C12.5262 5.39331 11.9132 6.08808 11.295 6.77263C11.2388 6.83393 11.2184 6.87991 11.2542 6.96675C11.6118 7.84542 11.0958 8.75986 10.1507 8.83649C9.42531 8.89268 8.69478 8.85692 7.96425 8.84159C7.62198 8.83649 7.3359 8.6628 7.0958 8.41758C6.89146 8.20813 6.68711 8.00379 6.44701 7.76369C6.44701 10.4253 6.44701 13.0357 6.44701 15.6666C6.5032 15.6666 6.56451 15.6666 6.62581 15.6666C8.74587 15.6666 10.8608 15.6666 12.9809 15.6666C13.2976 15.6666 13.4917 15.8863 13.4355 16.1775C13.4049 16.341 13.2823 16.4227 13.1494 16.4993C8.85825 16.4993 4.57217 16.4993 0.280971 16.4993C0.189017 16.4176 0.0970628 16.3205 0 16.2286C0 16.1417 0 16.06 0 15.9732C0.122606 15.7433 0.311623 15.6717 0.561942 15.682C0.883782 15.6973 1.21073 15.6871 1.53768 15.6871C1.63985 15.6871 1.74713 15.6871 1.8493 15.6871C1.8493 14.3231 1.8493 12.9795 1.8493 11.6258C1.788 11.6411 1.73691 11.6513 1.68583 11.6666C1.15454 11.8046 0.582377 11.6155 0.275863 11.166C0.153257 10.9872 0.0868456 10.7726 0 10.5785C0 9.25539 0 7.93738 0 6.61426ZM5.59388 15.6769C5.59388 15.6002 5.59388 15.5338 5.59388 15.4674C5.59388 12.9489 5.59388 10.4355 5.59388 7.91694C5.59388 7.51848 5.76246 7.21707 6.13028 7.0536C6.46744 6.90545 6.83015 6.98719 7.12134 7.27837C7.31547 7.4725 7.50448 7.67684 7.71394 7.86075C7.80589 7.94249 7.9336 8.02422 8.04599 8.02422C8.72543 8.03955 9.40998 8.03444 10.0894 8.02933C10.2887 8.02933 10.4266 7.90673 10.5032 7.72793C10.6565 7.38055 10.3959 7.01273 9.99236 7.00762C9.51215 7.00251 9.03705 7.00251 8.55685 7.00762C8.38827 7.00762 8.26055 6.95653 8.14305 6.83904C7.87741 6.56828 7.60666 6.30264 7.34101 6.03699C7.08047 5.77135 6.77396 5.58744 6.40614 5.52103C6.04343 5.45462 5.69094 5.42907 5.41508 5.75602C5.33845 5.84798 5.23117 5.91439 5.13411 5.99101C4.52108 6.48144 3.74969 6.48144 3.14688 5.9808C2.97319 5.83776 2.8046 5.69472 2.63091 5.55679C2.59004 5.52614 2.53896 5.49038 2.49298 5.49038C2.31929 5.49548 2.14049 5.49038 1.97191 5.52614C1.29247 5.67939 0.837805 6.25155 0.832696 6.95143C0.827588 7.92205 0.832696 8.88757 0.832696 9.8582C0.832696 10.0319 0.827588 10.2107 0.832696 10.3844C0.848022 10.6756 1.08302 10.885 1.3742 10.8748C1.65518 10.8646 1.85441 10.6602 1.85441 10.3691C1.85952 9.96548 1.85952 9.5619 1.85952 9.15833C1.85952 8.59638 1.85952 8.02933 1.85952 7.46739C1.85952 7.14044 2.09451 6.94632 2.3857 7.01273C2.59004 7.05871 2.69732 7.2324 2.69732 7.50826C2.69732 8.55552 2.69732 9.60277 2.69732 10.65C2.69732 12.2746 2.69732 13.894 2.69732 15.5185C2.69732 15.5747 2.70243 15.6309 2.70754 15.682C3.06003 15.682 3.39209 15.682 3.73436 15.682C3.73436 15.6053 3.73436 15.544 3.73436 15.4827C3.73436 13.9093 3.73436 12.3307 3.73436 10.7573C3.73436 10.696 3.73436 10.6296 3.73947 10.5683C3.7548 10.3691 3.91827 10.2158 4.1175 10.2005C4.38826 10.1851 4.56706 10.3639 4.56706 10.6551C4.56706 12.2694 4.56706 13.8786 4.56706 15.4929C4.56706 15.5543 4.56706 15.6156 4.56706 15.6871C4.91444 15.6769 5.2465 15.6769 5.59388 15.6769Z" fill="#F8F8F8"/>
<path d="M16.3474 10.0015C16.3423 10.0066 16.3269 10.0168 16.3269 10.0219C16.1022 10.7269 15.6986 11.0181 14.9578 11.0181C12.567 11.0181 10.1813 11.0181 7.79052 11.0181C7.70367 11.0181 7.60661 11.013 7.52487 10.9823C7.35118 10.9261 7.23369 10.732 7.25412 10.5583C7.27966 10.354 7.43292 10.2058 7.63215 10.1905C7.69857 10.1854 7.77009 10.1854 7.84161 10.1854C10.2273 10.1854 12.6079 10.1854 14.9936 10.1854C15.295 10.1854 15.4636 10.073 15.5096 9.838C15.5198 9.7818 15.5198 9.7205 15.5198 9.66431C15.5198 6.95677 15.5198 4.24923 15.5198 1.53658C15.5198 1.14833 15.3767 1.00529 14.9936 1.00529C12.3882 1.00529 9.77775 1.00529 7.17238 1.00529C7.11108 1.00529 7.04467 1.00529 6.98337 1.00018C6.7637 0.984851 6.61555 0.862246 6.57979 0.663011C6.54403 0.45356 6.63598 0.290086 6.85054 0.198132C6.86076 0.193023 6.88119 0.177698 6.89652 0.16748C9.6858 0.16748 12.4751 0.16748 15.2644 0.16748C15.295 0.177698 15.3205 0.193023 15.3512 0.198132C15.811 0.300303 16.1175 0.576166 16.2861 1.0155C16.3014 1.0717 16.3269 1.133 16.3474 1.18919C16.3474 4.12662 16.3474 7.06405 16.3474 10.0015Z" fill="#F8F8F8"/>
<path d="M4.43944 0.16748C4.54672 0.198132 4.65911 0.228783 4.7715 0.264543C5.69104 0.565949 6.22744 1.43951 6.15081 2.31308C6.06397 3.31436 5.32322 4.06021 4.36792 4.16238C3.30023 4.27477 2.31939 3.53403 2.17124 2.49699C2.01287 1.38332 2.70253 0.407583 3.79576 0.198132C3.8162 0.193023 3.84174 0.177698 3.86217 0.16748C4.0563 0.16748 4.24532 0.16748 4.43944 0.16748ZM4.15336 3.3399C4.80215 3.33479 5.32322 2.81883 5.32322 2.17515C5.31811 1.52125 4.79193 0.995068 4.14825 1.00018C3.51479 1.00018 2.97839 1.53147 2.97839 2.17004C2.96817 2.81372 3.49947 3.3399 4.15336 3.3399Z" fill="#F8F8F8"/>
<path d="M10.7945 2.05256C11.4842 2.05256 12.1789 2.05256 12.8686 2.05256C13.1649 2.05256 13.3488 2.21093 13.3488 2.46636C13.3488 2.72179 13.1649 2.88015 12.8686 2.88015C11.4688 2.88015 10.0691 2.88015 8.66934 2.88015C8.42924 2.88015 8.26577 2.74733 8.2249 2.52766C8.18914 2.33864 8.30664 2.13941 8.49565 2.07811C8.56206 2.05767 8.6438 2.05256 8.71532 2.05256C9.41009 2.04745 10.0997 2.05256 10.7945 2.05256Z" fill="#F8F8F8"/>
<path d="M9.72165 3.91722C10.0639 3.91722 10.4011 3.91211 10.7434 3.91722C11.0856 3.92744 11.29 4.20841 11.1674 4.49449C11.0907 4.66818 10.9426 4.74991 10.7587 4.74991C10.0639 4.75502 9.36405 4.75502 8.66928 4.74991C8.40363 4.74991 8.21973 4.56601 8.21973 4.33101C8.21973 4.09602 8.40363 3.91722 8.66928 3.91211C9.01666 3.91211 9.36915 3.91722 9.72165 3.91722Z" fill="#F8F8F8"/>
</svg>
